<svg width="86" height="25" viewBox="0 0 86 25" fill="none" xmlns="http://www.w3.org/2000/svg">
<path fill-rule="evenodd" clip-rule="evenodd" d="M36.6211 7.14501H39.3616V10.0562H39.4298C40.0123 8.08702 41.7248 6.83691 43.8141 6.83691C44.3274 6.83691 44.7734 6.92247 45.0127 6.95705L45.0141 9.73166C44.7747 9.6461 44.1337 9.46922 43.42 9.56054C41.3187 9.83096 39.4879 11.5279 39.4972 13.8583V24.955H36.6211V7.14501Z" fill="#14121E"/>
<path fill-rule="evenodd" clip-rule="evenodd" d="M21.8067 13.8568C21.8067 11.4705 23.7701 9.40122 26.155 9.32807C28.6282 9.25227 30.6567 11.2338 30.6572 13.6901V14.3023H21.8067V13.8568ZM30.4732 19.3023C29.924 21.1464 28.1915 22.4812 26.155 22.4187C24.4873 22.3677 23.0852 21.341 22.3923 19.9118C21.8063 18.6795 21.8067 16.8025 21.8067 16.8025H33.8605V16.8016L33.895 15.0555C33.9287 12.7268 33.1073 10.501 31.7029 8.96013C30.436 7.5899 28.6548 6.73389 26.4294 6.73389C23.4154 6.73389 21.1209 8.27524 19.8877 10.3636C18.9293 11.9732 18.6748 13.8231 18.6748 15.9119C18.6748 18.3771 19.2715 20.6716 20.71 22.35C22.0456 23.9255 24.0316 24.953 26.4631 24.953C28.1073 24.953 29.6482 24.4734 30.881 23.6515C32.285 22.6926 33.3125 21.083 33.5519 19.3706L33.5603 19.3023H30.4732Z" fill="#14121E"/>
<path fill-rule="evenodd" clip-rule="evenodd" d="M66.8468 13.8568C66.8468 11.4705 68.8101 9.40122 71.1951 9.32807C73.6682 9.25227 75.6968 11.2338 75.6972 13.6901V14.3023H66.8468V13.8568ZM75.5132 19.3023C74.9644 21.1464 73.2316 22.4812 71.1951 22.4187C69.5274 22.3677 68.1252 21.341 67.4319 19.9118C66.8463 18.6795 66.8468 16.8025 66.8468 16.8025H78.9001C78.9001 16.8025 78.9005 16.8021 78.9005 16.8016L78.9351 15.0555C78.9688 12.7268 78.1469 10.501 76.743 8.96013C75.476 7.5899 73.6948 6.73389 71.4695 6.73389C68.4555 6.73389 66.161 8.27524 64.9282 10.3636C63.9693 11.9732 63.7148 13.8231 63.7148 15.9119C63.7148 18.3771 64.3115 20.6716 65.75 22.35C67.0857 23.9255 69.0726 24.953 71.5032 24.953C73.1474 24.953 74.6883 24.4734 75.9211 23.6515C77.325 22.6926 78.3526 21.083 78.592 19.3706L78.6004 19.3023H75.5132Z" fill="#14121E"/>
<path fill-rule="evenodd" clip-rule="evenodd" d="M11.0563 14.3022L17.8277 6.73377H14.3004L6.05591 15.9118V2.8026V0.443359H0V2.8026H3.14476V16.2638C3.14476 18.6625 6.10423 19.7965 7.70675 18.0113L9.1723 16.4256L15.0575 24.9507H18.345L11.0563 14.3022Z" fill="#14121E"/>
<path fill-rule="evenodd" clip-rule="evenodd" d="M79.7188 0.444291V2.80308L82.8644 2.80264V24.9534H85.7751V0.54625V0.443848L79.7188 0.444291Z" fill="#14121E"/>
<path fill-rule="evenodd" clip-rule="evenodd" d="M53.6501 6.73389C48.9955 6.73389 46.2031 10.1074 46.2031 14.3715V24.953H49.1143V14.4655C49.1143 11.8629 51.1716 9.55548 53.6501 9.55548C56.1286 9.55548 58.1859 11.8629 58.1859 14.4655V24.953H61.0971V14.3081C61.0971 10.028 58.3047 6.73389 53.6501 6.73389Z" fill="#14121E"/>
</svg>
